<svg xmlns="http://www.w3.org/2000/svg" viewBox="0 0 1275 1275"><defs><style>.cls-1{fill:#e94955;}.cls-2{fill:#fff;}</style></defs><title>TAO.HVCIS.COM</title><g id="logo"><g id="ico"><rect class="cls-1" width="1275" height="1275" rx="113.39"/><path class="cls-2" d="M178.58,331.64a51,51,0,0,0,0,102h19.08v-102Z"/><rect class="cls-2" x="299.71" y="331.64" width="168.78" height="102.04"/><rect class="cls-2" x="570.53" y="331.64" width="408.2" height="102.04"/><path class="cls-2" d="M1097,433.68a51,51,0,0,0,0-102h-16.24v102Z"/><path class="cls-2" d="M299.71,199.52a51,51,0,0,0-102,0V331.64h102Z"/><path class="cls-2" d="M1097,1025.05H299.71V433.68h-102v642.39a51,51,0,0,0,51,51H1097a51,51,0,0,0,51-51h0A51,51,0,0,0,1097,1025.05Z"/><path class="cls-2" d="M570.53,199.52a51,51,0,1,0-102,0V331.64h102Z"/><path class="cls-2" d="M1080.77,199.52a51,51,0,1,0-102,0V331.64h102Z"/><path class="cls-2" d="M978.73,760.79H570.53V433.68h-102V795.35a89.28,89.28,0,0,0,.5,9.32,52.63,52.63,0,0,0-.5,7.14h0a51,51,0,0,0,51,51h510.24a51,51,0,0,0,51-51h0a52.37,52.37,0,0,0-.47-6.9,89.12,89.12,0,0,0,.47-9V433.68h-102Z"/></g></g></svg>