<?xml version="1.0" encoding="utf-8"?>
<!-- Generator: Adobe Illustrator 23.0.0, SVG Export Plug-In . SVG Version: 6.00 Build 0)  -->
<svg version="1.1" id="图层_1" xmlns="http://www.w3.org/2000/svg" xmlns:xlink="http://www.w3.org/1999/xlink" x="0px" y="0px"
	 viewBox="0 0 1275.59 1275.59" style="enable-background:new 0 0 1275.59 1275.59;" xml:space="preserve">
<style type="text/css">
	.st0{display:none;}
	.st1{font-family:'HYj3gf';}
	.st2{font-size:131.3708px;}
</style>
<text transform="matrix(1 0 0 1 14.9395 148.8783)" class="st0 st1 st2">世</text>
<g>
	<path d="M127.56,297.62c-15.65,0-29.83,6.34-40.09,16.6c-10.26,10.26-16.6,24.44-16.6,40.09c0,31.31,25.38,56.69,56.69,56.69h21.2
		V297.62H127.56z"/>
	<rect x="262.15" y="297.62" width="187.53" height="113.38"/>
	<rect x="563.06" y="297.62" width="453.55" height="113.38"/>
	<path d="M1148.03,411c15.66,0,29.83-6.34,40.09-16.6c10.25-10.26,16.6-24.44,16.6-40.09c0-31.31-25.38-56.69-56.69-56.69h-18.04
		V411H1148.03z"/>
	<path d="M262.15,150.82c0-15.66-6.35-29.83-16.61-40.09c-10.26-10.25-24.43-16.6-40.09-16.6c-31.31,0-56.69,25.38-56.69,56.69
		v146.8h113.39V150.82z"/>
	<path d="M1148.03,1068.07H262.15V411H148.76v713.76c0,12.72,4.19,24.46,11.26,33.92c10.34,13.82,26.84,22.77,45.43,22.77h942.58
		c31.31,0,56.69-25.38,56.69-56.69v0C1204.72,1093.45,1179.34,1068.07,1148.03,1068.07z"/>
	<path d="M563.06,150.82c0-15.66-6.35-29.83-16.6-40.09c-10.26-10.25-24.43-16.6-40.09-16.6c-31.31,0-56.69,25.38-56.69,56.69v146.8
		h113.38V150.82z"/>
	<path d="M1129.99,150.82c0-15.66-6.34-29.83-16.6-40.09c-10.26-10.25-24.44-16.6-40.09-16.6c-31.31,0-56.69,25.38-56.69,56.69
		v146.8h113.38V150.82z"/>
	<path d="M1016.61,774.45H563.06V411H449.68v401.85c0,3.52,0.2,6.97,0.56,10.36c-0.36,2.59-0.56,5.24-0.56,7.93v0
		c0,31.31,25.38,56.69,56.69,56.69h566.93c0,0,0,0,0,0c0,0,0,0,0,0c0,0,0,0,0,0c31.31,0,56.69-25.38,56.69-56.69v0
		c0-2.6-0.19-5.16-0.53-7.67c0.34-3.28,0.53-6.63,0.53-10.03V411h-113.38V774.45z"/>
</g>
</svg>
