<?xml version="1.0" encoding="UTF-8"?><svg id="t2" xmlns="http://www.w3.org/2000/svg" viewBox="0 0 1623.17 1623.17"><defs><style>.c-1 {fill:#fff;}.c-2 {fill:#db464a;}</style></defs><g id="t1-2"><g><path class="c-2" d="M1502.93,1623.17H123.37c-2.5-.8-4.94-1.9-7.5-2.36-76.15-13.67-111.24-69.42-111.31-144.2-.4-441.44-.28-882.87,.13-1324.31,.02-18.65,2.87-37.76,7.49-55.86C26.13,41.73,78.63,3.91,138.9,3.88c191.93-.09,383.86-.03,575.8-.03,257.31,0,514.63-.36,771.94,.31,51.31,.13,92.95,21.78,118.8,67.74,7.8,13.87,11.92,29.81,17.72,44.81V1509.23c-1.47,3.26-3.61,6.38-4.32,9.8-7.53,36.36-26.45,65.39-58.91,83.15-17.57,9.61-37.92,14.16-57.01,20.99ZM692.45,831.48c-12.37,0-21.8,.41-31.18-.1-13.93-.75-20.58,4.68-19.82,19.32,.74,14.2,.09,28.47,.25,42.71,.22,18.91,2.28,21.1,20.87,21.15,47.98,.12,95.96,.54,143.93-.23,14.87-.24,20.43,3.92,20.14,19.48-.84,44.81-.17,89.64-.21,134.47-.02,20.7-1.35,22.26-21.64,18.62-60.96-10.92-105.4-45.41-136.99-97.68-6.26-10.36-11.37-21.48-18.27-31.37-6.91-9.91-17.5-10.1-24.98-.6-3.7,4.7-6.22,11.15-7.1,17.13-6.67,45.45-4.62,90.49,8.73,134.65,17.32,57.31,54.29,86.9,114.05,89.89,26.81,1.34,53.83,1.49,80.61-.14,85.55-5.2,164.52-29.95,233.77-82.05,3.95-2.97,8.57-5.04,14.81-8.64,4.87,21.27,9.35,40.13,13.46,59.07,2.81,12.95,9.17,16.59,21.51,10.38,26.84-13.49,53.86-26.62,80.98-39.54,9.89-4.71,12.63-10.75,8.79-21.47-21.33-59.55-42.31-119.22-62.98-179-3.79-10.96-9.89-14.07-20.36-10.18-20.74,7.7-41.48,15.41-62.27,22.98-9.51,3.46-13.17,9.62-10.58,19.66,3.69,14.29,7.51,28.58,10.19,43.08,.92,4.98,.48,13.26-2.59,15.45-18.6,13.19-38.13,25.05-60.02,39.07-.69-9.25-1.31-13.83-1.32-18.42-.08-39.02,.5-78.06-.34-117.07-.31-14.33,5-17.93,18.44-17.73,45.86,.66,91.73,.28,137.6,.25,23.11-.01,24.89-1.84,24.96-25.51,.04-11.6,0-23.2-.1-34.8-.2-20.72-2.06-22.77-22.61-22.82-47.45-.12-94.9-.26-142.35,.18-11.44,.11-16.33-3.51-15.79-15.41,.78-17.37,.37-34.8,.58-52.2,.25-20.62,.33-20.76,21.68-20.8,46.4-.08,92.79-.26,139.19,.11,13.91,.11,20.56-4.86,19.77-19.49-.74-13.67-.13-27.41-.17-41.12-.05-21.79-1.27-23.08-23.57-23.08-91.21,0-182.42,.06-273.63,.11-5.54,0-11.08,0-20.29,0,12.41-22,23.17-40.49,33.37-59.29,10.51-19.39,8.64-24.17-13.34-28.59-21.67-4.36-43.83-6.27-65.55-10.43-25.77-4.94-33.99-1.89-46.13,21.18-26.52,50.37-52.27,101.16-79.46,151.16-11.17,20.54-11.2,40.07-1.91,60.48,5.2,11.42,10.86,22.63,17.9,37.2Zm655.83,22.63c0-113.41-.06-226.81,.05-340.22,.02-21.09-4.2-40.81-16.35-58.41-25-36.21-60.29-50.19-103.32-50.07-146.08,.41-292.15-.01-438.23,.39-13.13,.04-21.96-3.99-28.7-15.03-9.89-16.19-20.71-31.8-30.72-47.91-11.82-19.02-32.8-20.35-46.23-2.37-3.45,4.61-6.18,9.83-8.76,15-30.85,61.79-61.67,123.59-92.35,185.46-10.39,20.95-8.49,35.37,5.55,47.15,12.41,10.41,29.15,10.16,46.4-3.18,26.24-20.31,51.2-42.29,77.46-62.58,6.96-5.38,16.69-10.11,25.16-10.15,155.04-.6,310.08-.48,465.12-.36,21.87,.02,26.63,5.18,26.65,27.51,.06,73.85,.03,147.69,.03,221.54,0,135.03-.27,270.07,.33,405.1,.08,16.87-4.12,26.97-21.48,30.79-12.81,2.82-25.2,7.63-37.72,11.76-35.53,11.71-71.35,22.63-106.41,35.62-20.69,7.66-26.54,30.65-11.49,46.03,7.15,7.31,20.02,12.33,30.44,12.59,51.12,1.26,102.29,.76,153.44,.53,65.06-.29,111.08-46.79,111.12-112.12,.07-112.35,.02-224.7,.02-337.05ZM284.8,1186.06c-.03,57.36,28.84,95.51,68.19,104.75,41.94,9.85,83.33-9.78,102.29-49.65,33.48-70.4,67.3-140.67,99.19-211.79,21.81-48.65,38.38-99.32,42.74-153.05,3.14-38.79-3.12-74.89-33.65-102.62-37.38-33.95-74.96-67.69-112.75-101.19-9.04-8.01-19.17-14.81-28.92-21.99-29.12-21.43-65-16.23-84.7,12.2-20.03,28.91-12.12,68.29,17.4,87.46,41.52,26.97,83.73,52.95,124.17,81.46,32.47,22.89,39.03,54.67,22.36,90.78-3.51,7.61-7.88,14.96-12.77,21.77-48.49,67.56-106.82,126.18-167.72,182.26-22.25,20.49-35.68,43.81-35.82,59.61ZM558.15,467.01c0-52.34-43.37-96.2-95.08-96.18-52.09,.02-95.19,43.59-95.05,96.07,.15,53.03,42.73,96.08,94.97,96.01,52.16-.07,95.17-43.41,95.17-95.9Z"/><path class="c-1" d="M1623.17,116.7c-5.8-14.99-9.92-30.94-17.72-44.81-25.85-45.97-67.49-67.61-118.8-67.74-257.31-.67-514.63-.31-771.94-.31-191.93,0-383.86-.06-575.8,.03-60.27,.03-112.78,37.85-126.72,92.55-4.62,18.11-7.47,37.21-7.49,55.86-.41,441.44-.53,882.87-.13,1324.31,.07,74.79,35.16,130.53,111.31,144.2,2.56,.46,5,1.56,7.5,2.36H.01c-.01-540.92-.01-1081.85-.01-1623.17H1623.17V116.7Z"/><path class="c-1" d="M1502.93,1623.17c19.09-6.83,39.44-11.38,57.01-20.99,32.46-17.75,51.38-46.79,58.91-83.15,.71-3.42,2.85-6.54,4.32-9.8v113.93h-120.24Z"/><path class="c-1" d="M692.45,831.48c-7.03-14.57-12.7-25.78-17.9-37.2-9.29-20.41-9.26-39.94,1.91-60.48,27.19-50,52.95-100.79,79.46-151.16,12.14-23.06,20.37-26.11,46.13-21.18,21.72,4.16,43.88,6.07,65.55,10.43,21.98,4.42,23.86,9.2,13.34,28.59-10.19,18.8-20.95,37.29-33.37,59.29,9.21,0,14.75,0,20.29,0,91.21-.04,182.42-.11,273.63-.11,22.3,0,23.52,1.29,23.57,23.08,.03,13.71-.57,27.45,.17,41.12,.79,14.63-5.86,19.6-19.77,19.49-46.39-.37-92.79-.18-139.19-.11-21.35,.04-21.43,.17-21.68,20.8-.21,17.4,.2,34.83-.58,52.2-.53,11.9,4.35,15.52,15.79,15.41,47.45-.44,94.9-.3,142.35-.18,20.55,.05,22.42,2.1,22.61,22.82,.11,11.6,.14,23.2,.1,34.8-.08,23.67-1.86,25.49-24.96,25.51-45.87,.03-91.74,.41-137.6-.25-13.45-.19-18.75,3.41-18.44,17.73,.84,39.01,.26,78.04,.34,117.07,0,4.59,.64,9.18,1.32,18.42,21.89-14.01,41.43-25.87,60.02-39.07,3.07-2.18,3.51-10.46,2.59-15.45-2.68-14.49-6.51-28.78-10.19-43.08-2.59-10.04,1.07-16.2,10.58-19.66,20.79-7.57,41.52-15.28,62.27-22.98,10.47-3.89,16.57-.78,20.36,10.18,20.67,59.78,41.65,119.45,62.98,179,3.84,10.72,1.1,16.76-8.79,21.47-27.12,12.92-54.14,26.05-80.98,39.54-12.33,6.2-18.69,2.56-21.51-10.38-4.11-18.94-8.6-37.81-13.46-59.07-6.24,3.6-10.86,5.67-14.81,8.64-69.26,52.1-148.23,76.85-233.77,82.05-26.78,1.63-53.8,1.49-80.61,.14-59.76-2.99-96.73-32.58-114.05-89.89-13.35-44.16-15.4-89.2-8.73-134.65,.88-5.98,3.4-12.43,7.1-17.13,7.49-9.5,18.07-9.31,24.98,.6,6.9,9.89,12.01,21.01,18.27,31.37,31.59,52.27,76.04,86.75,136.99,97.68,20.29,3.64,21.63,2.08,21.64-18.62,.04-44.82-.62-89.66,.21-134.47,.29-15.57-5.26-19.72-20.14-19.48-47.97,.78-95.95,.35-143.93,.23-18.6-.05-20.65-2.24-20.87-21.15-.17-14.24,.49-28.51-.25-42.71-.76-14.64,5.89-20.07,19.82-19.32,9.38,.5,18.8,.1,31.18,.1Zm15.57,.08c39.62,0,74.54,.31,109.43-.54,3.02-.07,8.2-7.68,8.38-11.96,.89-20.98,.32-42.03,.48-63.05,.06-8.43-3.48-12.04-12.14-12.71-19.3-1.5-36.26,.61-47.83,19.18-6.05,9.71-14.55,17.9-22.03,26.7-11.05,13-22.19,25.92-36.29,42.37Z"/><path class="c-1" d="M1348.28,854.11c0,112.35,.05,224.7-.02,337.05-.04,65.33-46.06,111.83-111.12,112.12-51.15,.23-102.32,.73-153.44-.53-10.42-.26-23.28-5.28-30.44-12.59-15.04-15.37-9.2-38.36,11.49-46.03,35.06-12.99,70.88-23.91,106.41-35.62,12.51-4.12,24.9-8.94,37.72-11.76,17.36-3.82,21.56-13.92,21.48-30.79-.6-135.03-.33-270.06-.33-405.1,0-73.85,.04-147.69-.03-221.54-.02-22.34-4.78-27.5-26.65-27.51-155.04-.12-310.08-.23-465.12,.36-8.47,.03-18.2,4.77-25.16,10.15-26.26,20.29-51.22,42.27-77.46,62.58-17.24,13.35-33.99,13.59-46.4,3.18-14.03-11.77-15.94-26.19-5.55-47.15,30.67-61.88,61.5-123.68,92.35-185.46,2.58-5.18,5.32-10.39,8.76-15,13.43-17.99,34.42-16.66,46.23,2.37,10.01,16.11,20.83,31.73,30.72,47.91,6.75,11.04,15.57,15.07,28.7,15.03,146.08-.4,292.15,.02,438.23-.39,43.03-.12,78.33,13.86,103.32,50.07,12.15,17.6,16.37,37.32,16.35,58.41-.11,113.41-.05,226.81-.05,340.22Z"/><path class="c-1" d="M284.8,1186.06c.14-15.8,13.57-39.13,35.82-59.61,60.9-56.08,119.23-114.7,167.72-182.26,4.89-6.81,9.26-14.16,12.77-21.77,16.66-36.11,10.11-67.9-22.36-90.78-40.44-28.5-82.65-54.49-124.17-81.46-29.52-19.18-37.43-58.56-17.4-87.46,19.7-28.43,55.58-33.63,84.7-12.2,9.76,7.18,19.89,13.98,28.92,21.99,37.79,33.5,75.37,67.24,112.75,101.19,30.53,27.72,36.79,63.82,33.65,102.62-4.35,53.73-20.92,104.39-42.74,153.05-31.89,71.12-65.71,141.39-99.19,211.79-18.96,39.87-60.35,59.5-102.29,49.65-39.34-9.24-68.22-47.38-68.19-104.75Z"/><path class="c-1" d="M558.15,467.01c0,52.49-43,95.83-95.17,95.9-52.24,.07-94.82-42.98-94.97-96.01-.14-52.48,42.96-96.05,95.05-96.07,51.72-.02,95.08,43.84,95.08,96.18Z"/><path class="c-2" d="M708.02,831.55c14.1-16.45,25.23-29.38,36.29-42.37,7.48-8.8,15.98-16.99,22.03-26.7,11.58-18.57,28.53-20.69,47.83-19.18,8.65,.67,12.2,4.28,12.14,12.71-.16,21.02,.41,42.06-.48,63.05-.18,4.28-5.36,11.89-8.38,11.96-34.89,.85-69.82,.54-109.43,.54Z"/></g></g></svg>