<?xml version="1.0" standalone="no"?><!DOCTYPE svg PUBLIC "-//W3C//DTD SVG 1.1//EN" "http://www.w3.org/Graphics/SVG/1.1/DTD/svg11.dtd"><svg t="1606210303178" class="icon" viewBox="0 0 1024 1024" version="1.1" xmlns="http://www.w3.org/2000/svg" p-id="4275" xmlns:xlink="http://www.w3.org/1999/xlink" width="200" height="200"><defs><style type="text/css"></style></defs><path d="M1023.902757 512.000512c5.119033 317.380015-194.523235 517.022283-511.903251 511.90325-317.380015 2.559516-517.022283-194.523235-511.90325-511.90325C-5.022777 192.06098 194.619491-5.021771 511.999506 0.097262c317.380015-5.119033 517.022283 191.963719 511.903251 511.90325z" fill="#EC6B77" p-id="4276"></path><path d="M1021.34324 565.750353C1005.986143 340.512923 852.415168 199.739529 614.380156 204.858562c-253.392109-5.119033-414.641633 153.570975-409.5226 409.5226-5.119033 238.035011 135.654361 391.605986 360.891792 406.963084 268.749206-15.357098 440.236795-186.844686 455.593892-455.593893z" fill="#EB6368" p-id="4277"></path><path d="M1016.224208 629.738259c-30.714195-138.213878-138.213878-222.677914-299.463402-220.118397-189.404203-2.559516-309.701466 117.737748-307.14195 307.14195-2.559516 158.690008 81.90452 268.749206 220.118398 299.463401 209.880333-35.833228 350.653726-176.606621 386.486954-386.486954z" fill="#EB5C5A" p-id="4278"></path><path d="M998.307594 703.964231c-33.273711-58.868874-94.702101-92.142585-179.166138-92.142585-127.975813-2.559516-207.320816 76.785488-204.7613 204.7613-2.559516 81.90452 33.273711 145.892426 92.142585 179.166137C844.736619 954.796823 954.795818 844.737625 998.307594 703.964231z" fill="#EA4242" opacity=".39" p-id="4279"></path><path d="M445.452084 494.083898h12.797581c5.119033 0 7.678549 2.559516 10.238065 5.119033 2.559516 2.559516 5.119033 5.119033 5.119033 10.238065s-2.559516 7.678549-5.119033 10.238065c-2.559516 2.559516-5.119033 5.119033-10.238065 5.119032h-12.797581v35.833228c2.559516 0 2.559516-2.559516 2.559516-2.559517l2.559516-2.559516c2.559516-2.559516 7.678549-5.119033 12.797582-5.119032s7.678549 2.559516 10.238065 7.678548c2.559516 5.119033 2.559516 7.678549 2.559516 10.238065 0 2.559516-2.559516 7.678549-7.678549 10.238065-5.119033 2.559516-7.678549 5.119033-12.797581 7.678549-5.119033 2.559516-7.678549 5.119033-12.797582 7.678549v66.547422c0 10.238065-2.559516 15.357098-7.678548 20.47613-5.119033 5.119033-12.797581 7.678549-23.035647 7.678549h-10.238065c-2.559516 0-7.678549-2.559516-10.238065-2.559516-5.119033-2.559516-7.678549-2.559516-10.238065-7.678549 2.559516-5.119033 2.559516-10.238065 2.559517-12.797581 2.559516-5.119033 5.119033-7.678549 7.678548-10.238065H412.178372v-51.190325c-2.559516 0-2.559516 2.559516-5.119032 2.559516s-2.559516 0-5.119033 2.559516c-7.678549 2.559516-12.797581 2.559516-15.357097 0-2.559516-2.559516-5.119033-5.119033-7.678549-10.238065-2.559516-5.119033-2.559516-10.238065 0-12.797581 2.559516-2.559516 5.119033-5.119033 10.238065-7.678549 7.678549-2.559516 12.797581-5.119033 20.47613-7.678548v-51.190325h-17.916614c-10.238065 0-15.357098-5.119033-15.357097-15.357098 0-5.119033 0-7.678549 2.559516-10.238065 2.559516-2.559516 5.119033-2.559516 10.238065-2.559516h17.916614V460.810187c0-5.119033 2.559516-10.238065 5.119032-10.238065 2.559516-2.559516 5.119033-2.559516 10.238065-2.559516s7.678549 0 10.238065 2.559516 5.119033 5.119033 5.119033 10.238065v33.273711z m176.606621 97.261618c0 5.119033-2.559516 7.678549-5.119032 10.238065s-7.678549 2.559516-10.238065 2.559516h-15.357098v66.547422c0 5.119033 0 7.678549-2.559516 12.797582s-5.119033 5.119033-10.238065 5.119032-10.238065-2.559516-12.797581-5.119032c-2.559516-2.559516-2.559516-5.119033-2.559517-10.238065v-66.547423h-35.833227c0 10.238065-2.559516 17.916614-5.119033 25.595163-2.559516 7.678549-5.119033 15.357098-7.678548 20.47613-2.559516 5.119033-7.678549 12.797581-12.797582 17.916613-5.119033 5.119033-10.238065 10.238065-17.916613 15.357098-7.678549 5.119033-12.797581 5.119033-17.916614 5.119033-5.119033 0-7.678549-5.119033-10.238065-10.238066-5.119033-7.678549-2.559516-15.357098 7.678549-20.47613 5.119033-2.559516 7.678549-5.119033 12.797581-7.678548l10.238065-10.238065c2.559516-5.119033 5.119033-7.678549 5.119032-12.797582 2.559516-5.119033 2.559516-12.797581 2.559517-17.916613h-15.357098c-5.119033 0-7.678549 0-10.238065-2.559517-2.559516-2.559516-5.119033-5.119033-5.119032-10.238065s2.559516-10.238065 5.119032-10.238065c2.559516-2.559516 7.678549-2.559516 10.238065-2.559516h17.916614v-46.071292h-7.678549c-5.119033 0-10.238065 0-12.797581-2.559517-2.559516-2.559516-5.119033-5.119033-5.119033-12.797581 0-5.119033 2.559516-10.238065 5.119033-12.797581 2.559516-2.559516 7.678549-2.559516 12.797581-2.559516h15.357098c-2.559516-2.559516-5.119033-7.678549-7.678549-10.238065-2.559516-5.119033-5.119033-7.678549-7.678549-10.238065-2.559516-5.119033-5.119033-7.678549-5.119032-10.238065 0-2.559516 2.559516-7.678549 5.119032-10.238065 2.559516-2.559516 7.678549-5.119033 12.797581-5.119033s7.678549 2.559516 10.238065 7.678549c2.559516 5.119033 7.678549 10.238065 10.238065 12.797581 2.559516 5.119033 5.119033 10.238065 7.678549 12.797581 2.559516 2.559516 2.559516 5.119033 2.559516 7.678549 0 2.559516 2.559516 5.119033 2.559517 5.119033h15.357097c5.119033-5.119033 10.238065-12.797581 12.797581-17.916614 5.119033-5.119033 7.678549-12.797581 10.238065-20.47613 5.119033-10.238065 12.797581-12.797581 23.035647-7.678549 5.119033 2.559516 7.678549 5.119033 7.678548 10.238065 0 2.559516 0 7.678549-2.559516 12.797581s-5.119033 7.678549-7.678549 12.797582c-2.559516 5.119033-5.119033 7.678549-7.678548 12.797581h10.238065c5.119033 0 7.678549 0 10.238065 2.559516 2.559516 2.559516 2.559516 5.119033 2.559516 12.797581 0 5.119033 0 10.238065-2.559516 12.797582-2.559516 2.559516-5.119033 2.559516-10.238065 2.559516H588.784994V588.785999h15.357097c5.119033 0 7.678549 0 10.238065 2.559517 5.119033-7.678549 7.678549-5.119033 7.678549 0z m-94.702101-12.797582H563.189831v-46.071292h-35.833227v46.071292z" fill="#FFFFFF" p-id="4280"></path><path d="M619.499189 842.178108H384.023694c-61.42839 0-104.940166-15.357098-133.094845-46.071292-25.595163-28.154679-33.273711-71.666455-23.035647-125.416297l20.47613-258.511141V409.619862c15.357098-71.666455 66.547423-97.261618 107.499683-97.261618h286.66582c40.95226 0 92.142585 25.595163 107.499683 97.261618v2.559516l23.035646 261.070658c7.678549 48.630809-2.559516 89.583069-28.154679 120.297264-23.035646 30.714195-66.547423 48.630809-125.416296 48.630808zM294.440625 417.298411l-23.035646 258.511141c-7.678549 43.511776-2.559516 71.666455 12.797581 89.583069 17.916614 20.47613 48.630809 30.714195 97.261617 30.714195h235.475496c30.714195 0 71.666455-5.119033 94.702101-33.273711 17.916614-20.47613 23.035646-48.630809 17.916614-84.464037l-23.035647-261.070657c-10.238065-38.392744-33.273711-61.42839-63.987906-61.42839H355.869015c-7.678549 0-48.630809 5.119033-61.42839 61.42839z" fill="#FFFFFF" p-id="4281"></path><path d="M417.297405 297.001147h-5.119033c-12.797581-2.559516-20.47613-12.797581-17.916613-25.595163 10.238065-51.190325 53.749841-89.583069 107.499682-89.583069 51.190325 0 94.702101 35.833228 104.940167 87.023553 2.559516 12.797581-5.119033 23.035646-17.916614 25.595163-12.797581 2.559516-23.035646-5.119033-25.595163-17.916614-5.119033-28.154679-33.273711-51.190325-61.42839-51.190325-30.714195 0-56.309358 23.035646-61.42839 51.190325-2.559516 12.797581-12.797581 20.47613-23.035646 20.47613z" fill="#FFFFFF" p-id="4282"></path></svg>