<?xml version="1.0" standalone="no"?><!DOCTYPE svg PUBLIC "-//W3C//DTD SVG 1.1//EN" "http://www.w3.org/Graphics/SVG/1.1/DTD/svg11.dtd"><svg t="1607709301181" class="icon" viewBox="0 0 1138 1024" version="1.1" xmlns="http://www.w3.org/2000/svg" p-id="1629" xmlns:xlink="http://www.w3.org/1999/xlink" width="222.265625" height="200"><defs><style type="text/css"></style></defs><path d="M1052.438902 166.631185a112.512617 112.512617 0 0 1 49.714877 8.721908 55.820213 55.820213 0 0 1 25.293534 20.93258 40.992969 40.992969 0 0 1 6.977526 26.165725 87.219083 87.219083 0 0 1-4.360954 24.421343l-14.827244 41.86516-23.549152 69.775266-27.910107 77.624983-16.571625 56.692404a132.573006 132.573006 0 0 1-38.376397 63.66993 92.452228 92.452228 0 0 1-55.820212 17.443817H349.453096l17.443817 102.046326h575.645945c36.632015 0 55.820213 14.827244 55.820213 46.226114a69.775266 69.775266 0 0 1-11.338481 39.248587 49.714877 49.714877 0 0 1-43.609541 16.571626h-601.81167a68.030884 68.030884 0 0 1-38.376397-10.46629 87.219083 87.219083 0 0 1-25.293534-27.037916 163.099684 163.099684 0 0 1-17.443816-34.887633c0-13.082862-6.977527-25.293534-9.594099-36.632014l-6.105336-33.143252-13.082862-65.414312-16.571626-87.219082-17.443817-96.813182-50.587067-254.679721H61.630124a45.353923 45.353923 0 0 1-28.782298-8.721908 69.775266 69.775266 0 0 1-19.188198-20.060389A87.219083 87.219083 0 0 1 0.576766 76.79553 129.956433 129.956433 0 0 1 0.576766 52.374187 47.970495 47.970495 0 0 1 16.276201 14.869981 60.181167 60.181167 0 0 1 58.14136 0.042737H175.014931a87.219083 87.219083 0 0 1 36.632015 6.977527 63.66993 63.66993 0 0 1 22.676961 16.571626 87.219083 87.219083 0 0 1 10.46629 21.80477l6.105336 19.188198c0 6.105336 0 14.827244 4.360954 25.293534v34.015443l6.977527 42.73735zM858.812538 810.308015a112.512617 112.512617 0 0 1 41.86516 8.721908 87.219083 87.219083 0 0 1 34.887633 21.80477A97.685372 97.685372 0 0 1 959.986674 872.233563a100.301945 100.301945 0 0 1 0 87.219083 110.768235 110.768235 0 0 1-99.429754 64.542121 95.940991 95.940991 0 0 1-40.992969-8.721908 101.174136 101.174136 0 0 1-34.015442-26.165725 97.685372 97.685372 0 0 1-24.421343-29.654488 100.301945 100.301945 0 0 1 0-81.985938A97.685372 97.685372 0 0 1 785.548509 840.834693a87.219083 87.219083 0 0 1 34.015442-21.80477 111.640426 111.640426 0 0 1 39.248587-8.721908z m-477.960572 0a111.640426 111.640426 0 0 1 41.86516 7.849717 99.429754 99.429754 0 0 1 34.015442 21.804771 101.174136 101.174136 0 0 1 22.676961 34.015442 92.452228 92.452228 0 0 1 8.721908 40.120778 93.324418 93.324418 0 0 1-8.721908 40.992969 101.174136 101.174136 0 0 1-22.676961 34.015442 116.00138 116.00138 0 0 1-34.015442 22.676961 111.640426 111.640426 0 0 1-41.86516 7.849718 108.151662 108.151662 0 0 1-41.86516-7.849718 144.783677 144.783677 0 0 1-34.015442-22.676961 101.174136 101.174136 0 0 1-22.676961-34.015442 98.557563 98.557563 0 0 1 0-81.113747 101.174136 101.174136 0 0 1 22.676961-34.015442 118.617952 118.617952 0 0 1 34.015442-21.804771 108.151662 108.151662 0 0 1 41.86516-9.594099z" fill="#d81e06" p-id="1630"></path></svg>